<?xml version="1.0" encoding="UTF-8"?>
<svg id="Layer_1" data-name="Layer 1" xmlns="http://www.w3.org/2000/svg" viewBox="0 0 1028.46 1049.54">
  <defs>
    <style>
      .cls-1 {
        fill: #ddd4b3;
        stroke: #000;
        stroke-miterlimit: 10;
        stroke-width: 152px;
      }
    </style>
  </defs>
  <rect class="cls-1" x="76" y="76" width="876.46" height="897.54"/>
  <g>
    <path d="M329.16,519.57h-.57l-1.52,10.26h-12.54v-135.28h15.77v36.86l-.76,17.86h.57c8.36-8.55,20.14-14.06,30.97-14.06,24.89,0,38.38,18.43,38.38,46.93,0,31.54-19.76,49.97-41.61,49.97-9.12,0-20.14-4.75-28.69-12.54ZM383.31,482.33c0-20.33-7.6-33.82-26.03-33.82-8.17,0-17.67,4.18-26.98,13.68v45.98c8.55,7.79,18.24,10.64,24.89,10.64,15.96,0,28.12-13.68,28.12-36.48Z"/>
    <path d="M426.05,505.89c0-20.71,19.38-30.78,67.07-34.58-.57-12.54-6.65-23.18-24.51-23.18-11.97,0-23.75,5.7-32.3,11.02l-6.27-10.64c9.5-6.08,25.08-13.3,41.23-13.3,25.27,0,37.62,15.01,37.62,38v56.62h-13.11l-1.33-12.54h-.57c-10.07,7.98-23.37,14.82-36.29,14.82-17.29,0-31.54-9.69-31.54-26.22ZM493.12,505.7v-23.94c-39.52,3.04-51.49,10.83-51.49,22.99,0,10.45,9.5,14.63,20.14,14.63s20.71-4.94,31.35-13.68Z"/>
    <path d="M563.99,493.92v-43.7h-26.22v-11.78l26.79-.95,2.09-29.64h13.11v29.64h45.22v12.73h-45.22v43.89c0,16.53,5.51,25.08,23.37,25.08,8.55,0,15.39-1.71,22.04-4.18l3.42,11.59c-8.36,3.04-17.29,5.51-28.88,5.51-26.98,0-35.72-15.39-35.72-38.19Z"/>
    <path d="M685.59,498.86v-91.58h-32.68v-12.73h48.45v105.45c0,13.3,7.22,19,18.24,19,5.32,0,11.02-1.33,17.29-4.18l3.99,11.78c-8.55,3.61-14.63,5.51-24.7,5.51-19.76,0-30.59-11.4-30.59-33.25Z"/>
    <path d="M314.53,598.49h12.92l1.33,11.78h.57c8.55-8.17,20.71-14.06,31.92-14.06,24.89,0,38.19,18.43,38.19,47.12,0,31.35-19.76,49.78-41.99,49.78-8.55,0-19.19-4.37-27.55-11.97h-.38l.76,17.48v31.16h-15.77v-131.29ZM383.31,643.33c0-20.33-7.6-33.82-26.03-33.82-8.17,0-17.67,4.18-26.98,13.68v45.98c8.55,7.79,18.24,10.64,24.51,10.64,16.34,0,28.5-13.68,28.5-36.48Z"/>
    <path d="M457.59,659.86v-91.58h-32.68v-12.73h48.45v105.45c0,13.3,7.22,19,18.24,19,5.32,0,11.02-1.33,17.29-4.18l3.99,11.78c-8.55,3.61-14.63,5.51-24.7,5.51-19.76,0-30.59-11.4-30.59-33.25Z"/>
    <path d="M540.05,666.89c0-20.71,19.38-30.78,67.07-34.58-.57-12.54-6.65-23.18-24.51-23.18-11.97,0-23.75,5.7-32.3,11.02l-6.27-10.64c9.5-6.08,25.08-13.3,41.23-13.3,25.27,0,37.62,15.01,37.62,38v56.62h-13.11l-1.33-12.54h-.57c-10.07,7.98-23.37,14.82-36.29,14.82-17.29,0-31.54-9.69-31.54-26.22ZM607.12,666.7v-23.94c-39.52,3.04-51.49,10.83-51.49,22.99,0,10.45,9.5,14.63,20.14,14.63s20.71-4.94,31.35-13.68Z"/>
    <path d="M656.52,598.49h12.92l1.33,15.58h.76c9.69-10.07,20.33-17.86,34.77-17.86,21.85,0,31.92,12.92,31.92,37.24v57.38h-15.77v-55.29c0-17.48-6.08-25.65-21.09-25.65-11.02,0-18.43,5.51-29.07,16.53v64.41h-15.77v-92.34Z"/>
  </g>
</svg>